<svg width="323" height="68" viewBox="0 0 323 68" fill="none" xmlns="http://www.w3.org/2000/svg">
<circle cx="315.9" cy="6.5" r="6.5" transform="rotate(90 315.9 6.5)" fill="#BCB8B6" fill-opacity="0.2"/>
<circle cx="315.9" cy="24.6997" r="6.5" transform="rotate(90 315.9 24.6997)" fill="#BCB8B6" fill-opacity="0.2"/>
<circle cx="315.9" cy="42.8999" r="6.5" transform="rotate(90 315.9 42.8999)" fill="#BCB8B6" fill-opacity="0.2"/>
<circle cx="315.9" cy="61.0996" r="6.5" transform="rotate(90 315.9 61.0996)" fill="#BCB8B6" fill-opacity="0.2"/>
<circle cx="297.7" cy="6.5" r="6.5" transform="rotate(90 297.7 6.5)" fill="#BCB8B6" fill-opacity="0.2"/>
<circle cx="279.5" cy="6.5" r="6.5" transform="rotate(90 279.5 6.5)" fill="#BCB8B6" fill-opacity="0.2"/>
<circle cx="261.301" cy="6.5" r="6.5" transform="rotate(90 261.301 6.5)" fill="#BCB8B6" fill-opacity="0.2"/>
<circle cx="243.101" cy="6.5" r="6.5" transform="rotate(90 243.101 6.5)" fill="#BCB8B6" fill-opacity="0.2"/>
<circle cx="224.9" cy="6.5" r="6.5" transform="rotate(90 224.9 6.5)" fill="#BCB8B6" fill-opacity="0.2"/>
<circle cx="206.7" cy="6.5" r="6.5" transform="rotate(90 206.7 6.5)" fill="#BCB8B6" fill-opacity="0.2"/>
<circle cx="188.5" cy="6.5" r="6.5" transform="rotate(90 188.5 6.5)" fill="#BCB8B6" fill-opacity="0.2"/>
<circle cx="170.301" cy="6.5" r="6.5" transform="rotate(90 170.301 6.5)" fill="#BCB8B6" fill-opacity="0.2"/>
<circle cx="152.101" cy="6.5" r="6.5" transform="rotate(90 152.101 6.5)" fill="#BCB8B6" fill-opacity="0.2"/>
<circle cx="133.9" cy="6.5" r="6.5" transform="rotate(90 133.9 6.5)" fill="#BCB8B6" fill-opacity="0.2"/>
<circle cx="115.7" cy="6.5" r="6.5" transform="rotate(90 115.7 6.5)" fill="#BCB8B6" fill-opacity="0.2"/>
<circle cx="97.5" cy="6.5" r="6.5" transform="rotate(90 97.5 6.5)" fill="#BCB8B6" fill-opacity="0.2"/>
<circle cx="79.3008" cy="6.5" r="6.5" transform="rotate(90 79.3008 6.5)" fill="#BCB8B6" fill-opacity="0.2"/>
<circle cx="61.1006" cy="6.5" r="6.5" transform="rotate(90 61.1006 6.5)" fill="#BCB8B6" fill-opacity="0.2"/>
<circle cx="42.9004" cy="6.5" r="6.5" transform="rotate(90 42.9004 6.5)" fill="#BCB8B6" fill-opacity="0.2"/>
<circle cx="24.7002" cy="6.5" r="6.5" transform="rotate(90 24.7002 6.5)" fill="#BCB8B6" fill-opacity="0.2"/>
<circle cx="6.5" cy="6.5" r="6.5" transform="rotate(90 6.5 6.5)" fill="#BCB8B6" fill-opacity="0.2"/>
<circle cx="297.7" cy="24.6997" r="6.5" transform="rotate(90 297.7 24.6997)" fill="#BCB8B6" fill-opacity="0.2"/>
<circle cx="279.5" cy="24.6997" r="6.5" transform="rotate(90 279.5 24.6997)" fill="#BCB8B6" fill-opacity="0.2"/>
<circle cx="261.301" cy="24.6997" r="6.5" transform="rotate(90 261.301 24.6997)" fill="#BCB8B6" fill-opacity="0.2"/>
<circle cx="243.101" cy="24.6997" r="6.5" transform="rotate(90 243.101 24.6997)" fill="#BCB8B6" fill-opacity="0.2"/>
<circle cx="224.9" cy="24.6997" r="6.5" transform="rotate(90 224.9 24.6997)" fill="#BCB8B6" fill-opacity="0.2"/>
<circle cx="206.7" cy="24.6997" r="6.5" transform="rotate(90 206.7 24.6997)" fill="#BCB8B6" fill-opacity="0.2"/>
<circle cx="188.5" cy="24.6997" r="6.5" transform="rotate(90 188.5 24.6997)" fill="#BCB8B6" fill-opacity="0.2"/>
<circle cx="170.301" cy="24.6997" r="6.5" transform="rotate(90 170.301 24.6997)" fill="#BCB8B6" fill-opacity="0.2"/>
<circle cx="152.101" cy="24.6997" r="6.5" transform="rotate(90 152.101 24.6997)" fill="#BCB8B6" fill-opacity="0.2"/>
<circle cx="133.9" cy="24.6997" r="6.5" transform="rotate(90 133.9 24.6997)" fill="#BCB8B6" fill-opacity="0.2"/>
<circle cx="115.7" cy="24.6997" r="6.5" transform="rotate(90 115.7 24.6997)" fill="#BCB8B6" fill-opacity="0.2"/>
<circle cx="97.5" cy="24.6997" r="6.5" transform="rotate(90 97.5 24.6997)" fill="#BCB8B6" fill-opacity="0.2"/>
<circle cx="79.3008" cy="24.6997" r="6.5" transform="rotate(90 79.3008 24.6997)" fill="#BCB8B6" fill-opacity="0.2"/>
<circle cx="61.1006" cy="24.6997" r="6.5" transform="rotate(90 61.1006 24.6997)" fill="#BCB8B6" fill-opacity="0.2"/>
<circle cx="42.9004" cy="24.6997" r="6.5" transform="rotate(90 42.9004 24.6997)" fill="#BCB8B6" fill-opacity="0.2"/>
<circle cx="24.7002" cy="24.6997" r="6.5" transform="rotate(90 24.7002 24.6997)" fill="#BCB8B6" fill-opacity="0.2"/>
<circle cx="6.5" cy="24.6997" r="6.5" transform="rotate(90 6.5 24.6997)" fill="#BCB8B6" fill-opacity="0.2"/>
<circle cx="297.7" cy="42.8999" r="6.5" transform="rotate(90 297.7 42.8999)" fill="#BCB8B6" fill-opacity="0.2"/>
<circle cx="279.5" cy="42.8999" r="6.5" transform="rotate(90 279.5 42.8999)" fill="#BCB8B6" fill-opacity="0.2"/>
<circle cx="261.301" cy="42.8999" r="6.5" transform="rotate(90 261.301 42.8999)" fill="#BCB8B6" fill-opacity="0.2"/>
<circle cx="243.101" cy="42.8999" r="6.5" transform="rotate(90 243.101 42.8999)" fill="#BCB8B6" fill-opacity="0.2"/>
<circle cx="224.9" cy="42.8999" r="6.5" transform="rotate(90 224.9 42.8999)" fill="#BCB8B6" fill-opacity="0.2"/>
<circle cx="206.7" cy="42.8999" r="6.5" transform="rotate(90 206.7 42.8999)" fill="#BCB8B6" fill-opacity="0.2"/>
<circle cx="188.5" cy="42.8999" r="6.5" transform="rotate(90 188.5 42.8999)" fill="#BCB8B6" fill-opacity="0.2"/>
<circle cx="170.301" cy="42.8999" r="6.5" transform="rotate(90 170.301 42.8999)" fill="#BCB8B6" fill-opacity="0.2"/>
<circle cx="152.101" cy="42.8999" r="6.5" transform="rotate(90 152.101 42.8999)" fill="#BCB8B6" fill-opacity="0.2"/>
<circle cx="133.9" cy="42.8999" r="6.5" transform="rotate(90 133.9 42.8999)" fill="#BCB8B6" fill-opacity="0.2"/>
<circle cx="115.7" cy="42.8999" r="6.5" transform="rotate(90 115.7 42.8999)" fill="#BCB8B6" fill-opacity="0.2"/>
<circle cx="97.5" cy="42.8999" r="6.5" transform="rotate(90 97.5 42.8999)" fill="#BCB8B6" fill-opacity="0.2"/>
<circle cx="79.3008" cy="42.8999" r="6.5" transform="rotate(90 79.3008 42.8999)" fill="#BCB8B6" fill-opacity="0.2"/>
<circle cx="61.1006" cy="42.8999" r="6.5" transform="rotate(90 61.1006 42.8999)" fill="#BCB8B6" fill-opacity="0.2"/>
<circle cx="42.9004" cy="42.8999" r="6.5" transform="rotate(90 42.9004 42.8999)" fill="#BCB8B6" fill-opacity="0.2"/>
<circle cx="24.7002" cy="42.8999" r="6.5" transform="rotate(90 24.7002 42.8999)" fill="#BCB8B6" fill-opacity="0.2"/>
<circle cx="6.5" cy="42.8999" r="6.5" transform="rotate(90 6.5 42.8999)" fill="#BCB8B6" fill-opacity="0.2"/>
<circle cx="297.7" cy="61.0996" r="6.5" transform="rotate(90 297.7 61.0996)" fill="#BCB8B6" fill-opacity="0.2"/>
<circle cx="279.5" cy="61.0996" r="6.5" transform="rotate(90 279.5 61.0996)" fill="#BCB8B6" fill-opacity="0.2"/>
<circle cx="261.301" cy="61.0996" r="6.5" transform="rotate(90 261.301 61.0996)" fill="#BCB8B6" fill-opacity="0.2"/>
<circle cx="243.101" cy="61.0996" r="6.5" transform="rotate(90 243.101 61.0996)" fill="#BCB8B6" fill-opacity="0.2"/>
<circle cx="224.9" cy="61.0996" r="6.5" transform="rotate(90 224.9 61.0996)" fill="#BCB8B6" fill-opacity="0.2"/>
<circle cx="206.7" cy="61.0996" r="6.5" transform="rotate(90 206.7 61.0996)" fill="#BCB8B6" fill-opacity="0.2"/>
<circle cx="188.5" cy="61.0996" r="6.5" transform="rotate(90 188.5 61.0996)" fill="#BCB8B6" fill-opacity="0.2"/>
<circle cx="170.301" cy="61.0996" r="6.5" transform="rotate(90 170.301 61.0996)" fill="#BCB8B6" fill-opacity="0.2"/>
<circle cx="152.101" cy="61.0996" r="6.5" transform="rotate(90 152.101 61.0996)" fill="#BCB8B6" fill-opacity="0.2"/>
<circle cx="133.9" cy="61.0996" r="6.5" transform="rotate(90 133.9 61.0996)" fill="#BCB8B6" fill-opacity="0.2"/>
<circle cx="115.7" cy="61.0996" r="6.5" transform="rotate(90 115.7 61.0996)" fill="#BCB8B6" fill-opacity="0.2"/>
<circle cx="97.5" cy="61.0996" r="6.5" transform="rotate(90 97.5 61.0996)" fill="#BCB8B6" fill-opacity="0.2"/>
<circle cx="79.3008" cy="61.0996" r="6.5" transform="rotate(90 79.3008 61.0996)" fill="#BCB8B6" fill-opacity="0.2"/>
<circle cx="61.1006" cy="61.0996" r="6.5" transform="rotate(90 61.1006 61.0996)" fill="#BCB8B6" fill-opacity="0.2"/>
<circle cx="42.9004" cy="61.0996" r="6.5" transform="rotate(90 42.9004 61.0996)" fill="#BCB8B6" fill-opacity="0.2"/>
<circle cx="24.7002" cy="61.0996" r="6.5" transform="rotate(90 24.7002 61.0996)" fill="#BCB8B6" fill-opacity="0.2"/>
<circle cx="6.5" cy="61.0996" r="6.5" transform="rotate(90 6.5 61.0996)" fill="#BCB8B6" fill-opacity="0.2"/>
</svg>
