<svg width="36" height="36" viewBox="0 0 36 36" fill="none" xmlns="http://www.w3.org/2000/svg">
<circle cx="18" cy="18" r="18" fill="white"/>
<path d="M17.9544 10.2542C20.4753 10.2542 20.7503 10.2542 21.7586 10.3C22.6753 10.3458 23.1794 10.4833 23.5003 10.6208C23.9128 10.7583 24.2794 11.0333 24.6003 11.3083C24.9211 11.6292 25.1503 11.9958 25.2878 12.4083C25.4253 12.7292 25.5628 13.2333 25.6086 14.15C25.6544 15.1583 25.6544 15.4333 25.6544 17.9542C25.6544 20.475 25.6544 20.75 25.6086 21.7583C25.5628 22.675 25.4253 23.1792 25.2878 23.5C24.9669 24.325 24.3253 24.9667 23.5003 25.2875C23.1794 25.425 22.6753 25.5625 21.7586 25.6083C20.7503 25.6542 20.4753 25.6542 17.9544 25.6542C15.4336 25.6542 15.1586 25.6542 14.1503 25.6083C13.2336 25.5625 12.7294 25.425 12.4086 25.2875C11.9961 25.15 11.6294 24.875 11.3086 24.6C10.9878 24.2792 10.7586 23.9125 10.6211 23.5C10.4836 23.1792 10.3461 22.675 10.3003 21.7583C10.2544 20.75 10.2544 20.475 10.2544 17.9542C10.2544 15.4333 10.2544 15.1583 10.3003 14.15C10.3461 13.2333 10.4836 12.7292 10.6211 12.4083C10.7586 11.9958 11.0336 11.6292 11.3086 11.3083C11.6294 10.9875 11.9961 10.7583 12.4086 10.6208C12.7294 10.4833 13.2336 10.3458 14.1503 10.3C15.1586 10.2542 15.4794 10.2542 17.9544 10.2542ZM17.9544 8.55835C15.3878 8.55835 15.0669 8.55835 14.0586 8.60418C13.0503 8.65002 12.3628 8.78752 11.7669 9.06252C11.1711 9.29168 10.6211 9.65835 10.1628 10.1167C9.70443 10.575 9.29193 11.1708 9.06276 11.7667C8.83359 12.3625 8.65026 13.05 8.60443 14.0583C8.55859 15.0667 8.55859 15.3875 8.55859 17.9542C8.55859 20.5208 8.55859 20.8417 8.60443 21.85C8.65026 22.8583 8.78776 23.5458 9.06276 24.1417C9.29193 24.7375 9.65859 25.3333 10.1628 25.7917C10.6211 26.25 11.2169 26.6625 11.8128 26.8917C12.4086 27.1208 13.0961 27.3042 14.1044 27.35C15.1128 27.3958 15.4336 27.3958 18.0003 27.3958C20.5669 27.3958 20.8878 27.3958 21.8961 27.35C22.9044 27.3042 23.5919 27.1667 24.1878 26.8917C25.4711 26.3875 26.4336 25.425 26.9378 24.1417C27.1669 23.5458 27.3503 22.8583 27.3961 21.85C27.4419 20.8417 27.4419 20.5208 27.4419 17.9542C27.4419 15.3875 27.4419 15.0667 27.3961 14.0583C27.3503 13.05 27.2128 12.3625 26.9378 11.7667C26.7086 11.125 26.3419 10.575 25.8378 10.1167C25.3794 9.65835 24.7836 9.24585 24.1878 9.01668C23.5919 8.78752 22.9044 8.60418 21.8961 8.55835C20.8419 8.55835 20.5211 8.55835 17.9544 8.55835Z" fill="#2B2B39"/>
<path d="M17.9531 13.1417C15.2948 13.1417 13.1406 15.2958 13.1406 17.9542C13.1406 20.6125 15.2948 22.7667 17.9531 22.7667C20.6115 22.7667 22.7656 20.6125 22.7656 17.9542C22.8115 15.2958 20.6573 13.1417 17.9531 13.1417ZM17.9531 21.1167C16.2115 21.1167 14.8365 19.6958 14.8365 18C14.8365 16.2583 16.2573 14.8833 17.9531 14.8833C19.6948 14.8833 21.0698 16.3042 21.0698 18C21.1156 19.6958 19.6948 21.1167 17.9531 21.1167Z" fill="#2B2B39"/>
<path d="M22.9974 14.1042C23.6302 14.1042 24.1432 13.5912 24.1432 12.9583C24.1432 12.3255 23.6302 11.8125 22.9974 11.8125C22.3646 11.8125 21.8516 12.3255 21.8516 12.9583C21.8516 13.5912 22.3646 14.1042 22.9974 14.1042Z" fill="#2B2B39"/>
</svg>
